<svg width="132" height="14" viewBox="0 0 132 14" fill="none" xmlns="http://www.w3.org/2000/svg">
<path d="M19.134 6.373C19.134 7.13367 19.2927 7.81967 19.61 8.431C19.932 9.03767 20.373 9.51833 20.933 9.873C21.493 10.2277 22.1323 10.405 22.851 10.405C23.5743 10.405 24.2137 10.2277 24.769 9.873C25.3243 9.51833 25.7607 9.03767 26.078 8.431C26.3953 7.81967 26.554 7.13367 26.554 6.373C26.554 5.61233 26.3953 4.92867 26.078 4.322C25.7607 3.71533 25.3243 3.237 24.769 2.887C24.2137 2.53233 23.5743 2.355 22.851 2.355C22.1323 2.355 21.493 2.53233 20.933 2.887C20.373 3.237 19.932 3.71533 19.61 4.322C19.2927 4.92867 19.134 5.61233 19.134 6.373ZM18.322 6.373C18.322 5.701 18.4363 5.07567 18.665 4.497C18.8937 3.91367 19.211 3.405 19.617 2.971C20.0277 2.537 20.5083 2.19867 21.059 1.956C21.6097 1.71333 22.207 1.592 22.851 1.592C23.4997 1.592 24.097 1.71333 24.643 1.956C25.189 2.19867 25.665 2.537 26.071 2.971C26.4817 3.405 26.799 3.91367 27.023 4.497C27.247 5.07567 27.359 5.701 27.359 6.373C27.359 7.04967 27.247 7.67967 27.023 8.263C26.8037 8.84167 26.4887 9.35033 26.078 9.789C25.672 10.223 25.1937 10.5613 24.643 10.804C24.097 11.0467 23.4997 11.168 22.851 11.168C22.1977 11.168 21.5957 11.0467 21.045 10.804C20.4943 10.5613 20.016 10.223 19.61 9.789C19.204 9.35033 18.8867 8.84167 18.658 8.263C18.434 7.67967 18.322 7.04967 18.322 6.373ZM29.6325 11H28.8485V5.253H29.6325V6.289H29.5975C29.6161 6.16767 29.7001 6.01367 29.8495 5.827C30.0035 5.63567 30.2111 5.46533 30.4725 5.316C30.7338 5.162 31.0418 5.085 31.3965 5.085C31.6671 5.085 31.8981 5.12 32.0895 5.19C32.2855 5.25533 32.4208 5.323 32.4955 5.393L32.1455 6.072C32.0848 6.01133 31.9705 5.95067 31.8025 5.89C31.6391 5.82933 31.4408 5.799 31.2075 5.799C30.8855 5.799 30.6055 5.90633 30.3675 6.121C30.1341 6.33567 29.9521 6.59233 29.8215 6.891C29.6955 7.185 29.6325 7.45567 29.6325 7.703V11ZM35.8252 11.168C35.3072 11.168 34.8382 11.049 34.4182 10.811C33.9982 10.5683 33.6645 10.2207 33.4172 9.768C33.1698 9.31067 33.0462 8.76467 33.0462 8.13C33.0462 7.49533 33.1698 6.95167 33.4172 6.499C33.6645 6.04167 33.9982 5.69167 34.4182 5.449C34.8382 5.20633 35.3072 5.085 35.8252 5.085C36.2685 5.085 36.6605 5.16667 37.0012 5.33C37.3418 5.49333 37.6125 5.68233 37.8132 5.897C38.0138 6.107 38.1235 6.289 38.1422 6.443V1.368H38.9542V11H38.1632V9.796C38.1305 9.94533 38.0115 10.1273 37.8062 10.342C37.6055 10.5567 37.3348 10.748 36.9942 10.916C36.6535 11.084 36.2638 11.168 35.8252 11.168ZM35.9232 10.468C36.3292 10.468 36.7002 10.3723 37.0362 10.181C37.3722 9.98967 37.6405 9.719 37.8412 9.369C38.0418 9.019 38.1422 8.606 38.1422 8.13C38.1422 7.654 38.0418 7.241 37.8412 6.891C37.6405 6.541 37.3722 6.27033 37.0362 6.079C36.7002 5.883 36.3292 5.785 35.9232 5.785C35.5592 5.785 35.2185 5.88067 34.9012 6.072C34.5885 6.25867 34.3342 6.527 34.1382 6.877C33.9422 7.227 33.8442 7.64467 33.8442 8.13C33.8442 8.61533 33.9422 9.033 34.1382 9.383C34.3342 9.733 34.5885 10.0013 34.9012 10.188C35.2185 10.3747 35.5592 10.468 35.9232 10.468ZM40.7225 8.221C40.7272 8.62233 40.8065 8.998 40.9605 9.348C41.1192 9.698 41.3572 9.98033 41.6745 10.195C41.9919 10.4097 42.3909 10.517 42.8715 10.517C43.2635 10.517 43.5902 10.454 43.8515 10.328C44.1175 10.1973 44.3275 10.048 44.4815 9.88C44.6402 9.70733 44.7522 9.55333 44.8175 9.418L45.3145 9.908C45.1419 10.174 44.9412 10.4027 44.7125 10.594C44.4885 10.7807 44.2225 10.923 43.9145 11.021C43.6112 11.119 43.2495 11.168 42.8295 11.168C42.2182 11.168 41.6955 11.0327 41.2615 10.762C40.8322 10.4867 40.5032 10.1133 40.2745 9.642C40.0505 9.17067 39.9385 8.641 39.9385 8.053C39.9385 7.493 40.0505 6.989 40.2745 6.541C40.4985 6.093 40.8205 5.73833 41.2405 5.477C41.6652 5.21567 42.1762 5.085 42.7735 5.085C43.3149 5.085 43.7839 5.204 44.1805 5.442C44.5819 5.68 44.8922 6.01133 45.1115 6.436C45.3355 6.856 45.4475 7.346 45.4475 7.906C45.4475 7.948 45.4452 8.00167 45.4405 8.067C45.4405 8.13233 45.4382 8.18367 45.4335 8.221H40.7225ZM44.6495 7.556C44.6449 7.304 44.5819 7.038 44.4605 6.758C44.3439 6.47333 44.1502 6.233 43.8795 6.037C43.6135 5.83633 43.2472 5.736 42.7805 5.736C42.2952 5.736 41.9079 5.834 41.6185 6.03C41.3339 6.22133 41.1262 6.457 40.9955 6.737C40.8649 7.017 40.7855 7.29 40.7575 7.556H44.6495ZM47.7477 11H46.9637V5.253H47.7477V6.289H47.7127C47.7314 6.16767 47.8154 6.01367 47.9647 5.827C48.1187 5.63567 48.3264 5.46533 48.5877 5.316C48.849 5.162 49.157 5.085 49.5117 5.085C49.7824 5.085 50.0134 5.12 50.2047 5.19C50.4007 5.25533 50.536 5.323 50.6107 5.393L50.2607 6.072C50.2 6.01133 50.0857 5.95067 49.9177 5.89C49.7544 5.82933 49.556 5.799 49.3227 5.799C49.0007 5.799 48.7207 5.90633 48.4827 6.121C48.2494 6.33567 48.0674 6.59233 47.9367 6.891C47.8107 7.185 47.7477 7.45567 47.7477 7.703V11ZM59.2391 10.398C59.8831 10.398 60.4291 10.3117 60.8771 10.139C61.3297 9.96633 61.6494 9.79833 61.8361 9.635L62.1791 10.314C61.9784 10.5007 61.6191 10.6897 61.1011 10.881C60.5877 11.0723 59.9671 11.168 59.2391 11.168C58.5577 11.168 57.9277 11.0467 57.3491 10.804C56.7751 10.5567 56.2734 10.216 55.8441 9.782C55.4147 9.34333 55.0811 8.837 54.8431 8.263C54.6051 7.68433 54.4861 7.06133 54.4861 6.394C54.4861 5.72667 54.6027 5.10367 54.8361 4.525C55.0741 3.94167 55.4077 3.43067 55.8371 2.992C56.2664 2.55333 56.7704 2.21033 57.3491 1.963C57.9277 1.71567 58.5577 1.592 59.2391 1.592C59.9671 1.592 60.5877 1.68767 61.1011 1.879C61.6191 2.07033 61.9784 2.25933 62.1791 2.446L61.8361 3.125C61.6494 2.96167 61.3297 2.79367 60.8771 2.621C60.4291 2.44833 59.8831 2.362 59.2391 2.362C58.6977 2.362 58.1914 2.46 57.7201 2.656C57.2487 2.84733 56.8334 3.12033 56.4741 3.475C56.1147 3.82967 55.8324 4.25433 55.6271 4.749C55.4264 5.239 55.3261 5.78033 55.3261 6.373C55.3261 6.97033 55.4264 7.51633 55.6271 8.011C55.8324 8.50567 56.1147 8.93033 56.4741 9.285C56.8334 9.63967 57.2487 9.915 57.7201 10.111C58.1914 10.3023 58.6977 10.398 59.2391 10.398ZM68.3388 11V9.796C68.3061 9.922 68.1964 10.0947 68.0098 10.314C67.8278 10.5333 67.5734 10.7317 67.2468 10.909C66.9248 11.0817 66.5421 11.168 66.0988 11.168C65.5808 11.168 65.1024 11.049 64.6638 10.811C64.2298 10.5683 63.8798 10.2207 63.6138 9.768C63.3524 9.31067 63.2218 8.76467 63.2218 8.13C63.2218 7.49533 63.3524 6.95167 63.6138 6.499C63.8798 6.04167 64.2298 5.69167 64.6638 5.449C65.1024 5.20633 65.5808 5.085 66.0988 5.085C66.5421 5.085 66.9248 5.169 67.2468 5.337C67.5688 5.50033 67.8231 5.68933 68.0098 5.904C68.2011 6.11867 68.3084 6.29833 68.3318 6.443V5.253H69.1158V11H68.3388ZM64.0128 8.13C64.0128 8.61533 64.1178 9.033 64.3278 9.383C64.5378 9.733 64.8084 10.0013 65.1398 10.188C65.4758 10.3747 65.8281 10.468 66.1968 10.468C66.6028 10.468 66.9644 10.3723 67.2818 10.181C67.5991 9.98967 67.8488 9.719 68.0308 9.369C68.2174 9.019 68.3108 8.606 68.3108 8.13C68.3108 7.654 68.2174 7.241 68.0308 6.891C67.8488 6.541 67.5991 6.27033 67.2818 6.079C66.9644 5.883 66.6028 5.785 66.1968 5.785C65.8281 5.785 65.4758 5.88067 65.1398 6.072C64.8084 6.25867 64.5378 6.527 64.3278 6.877C64.1178 7.227 64.0128 7.64467 64.0128 8.13ZM73.7512 5.085C74.1152 5.085 74.4698 5.16433 74.8152 5.323C75.1605 5.477 75.4452 5.72433 75.6692 6.065C75.8932 6.401 76.0052 6.83733 76.0052 7.374V11H75.1932V7.563C75.1932 6.92367 75.0438 6.464 74.7452 6.184C74.4465 5.89933 74.0638 5.757 73.5972 5.757C73.2892 5.757 72.9905 5.84567 72.7012 6.023C72.4165 6.20033 72.1808 6.443 71.9942 6.751C71.8122 7.059 71.7212 7.40433 71.7212 7.787V11H70.9232V5.253H71.7212V6.359C71.7538 6.19567 71.8635 6.016 72.0502 5.82C72.2415 5.61933 72.4842 5.44667 72.7782 5.302C73.0768 5.15733 73.4012 5.085 73.7512 5.085ZM80.2918 10.468C80.7025 10.468 81.0315 10.405 81.2788 10.279C81.5261 10.1483 81.6778 10.0573 81.7338 10.006L82.1538 10.622C82.1165 10.65 82.0115 10.7107 81.8388 10.804C81.6661 10.8927 81.4421 10.9743 81.1668 11.049C80.8961 11.1283 80.5881 11.168 80.2428 11.168C79.7808 11.168 79.3351 11.0537 78.9058 10.825C78.4765 10.5963 78.1218 10.2557 77.8418 9.803C77.5665 9.35033 77.4288 8.79033 77.4288 8.123C77.4288 7.451 77.5665 6.891 77.8418 6.443C78.1218 5.99033 78.4765 5.652 78.9058 5.428C79.3351 5.19933 79.7808 5.085 80.2428 5.085C80.5881 5.085 80.8915 5.127 81.1528 5.211C81.4141 5.295 81.6288 5.38833 81.7968 5.491C81.9648 5.59367 82.0698 5.66833 82.1118 5.715L81.6988 6.324C81.6568 6.28667 81.5775 6.226 81.4608 6.142C81.3488 6.05333 81.1948 5.97167 80.9988 5.897C80.8028 5.82233 80.5671 5.785 80.2918 5.785C79.9605 5.785 79.6338 5.876 79.3118 6.058C78.9898 6.24 78.7238 6.506 78.5138 6.856C78.3085 7.20133 78.2058 7.62367 78.2058 8.123C78.2058 8.62233 78.3085 9.047 78.5138 9.397C78.7238 9.747 78.9898 10.013 79.3118 10.195C79.6338 10.377 79.9605 10.468 80.2918 10.468ZM83.8573 8.221C83.862 8.62233 83.9413 8.998 84.0953 9.348C84.254 9.698 84.492 9.98033 84.8093 10.195C85.1266 10.4097 85.5256 10.517 86.0063 10.517C86.3983 10.517 86.725 10.454 86.9863 10.328C87.2523 10.1973 87.4623 10.048 87.6163 9.88C87.775 9.70733 87.887 9.55333 87.9523 9.418L88.4493 9.908C88.2766 10.174 88.076 10.4027 87.8473 10.594C87.6233 10.7807 87.3573 10.923 87.0493 11.021C86.746 11.119 86.3843 11.168 85.9643 11.168C85.353 11.168 84.8303 11.0327 84.3963 10.762C83.967 10.4867 83.638 10.1133 83.4093 9.642C83.1853 9.17067 83.0733 8.641 83.0733 8.053C83.0733 7.493 83.1853 6.989 83.4093 6.541C83.6333 6.093 83.9553 5.73833 84.3753 5.477C84.8 5.21567 85.311 5.085 85.9083 5.085C86.4496 5.085 86.9186 5.204 87.3153 5.442C87.7166 5.68 88.027 6.01133 88.2463 6.436C88.4703 6.856 88.5823 7.346 88.5823 7.906C88.5823 7.948 88.58 8.00167 88.5753 8.067C88.5753 8.13233 88.573 8.18367 88.5683 8.221H83.8573ZM87.7843 7.556C87.7796 7.304 87.7166 7.038 87.5953 6.758C87.4786 6.47333 87.285 6.233 87.0143 6.037C86.7483 5.83633 86.382 5.736 85.9153 5.736C85.43 5.736 85.0426 5.834 84.7533 6.03C84.4686 6.22133 84.261 6.457 84.1303 6.737C83.9996 7.017 83.9203 7.29 83.8923 7.556H87.7843ZM90.9035 11H90.0915V1.368H90.9035V11ZM93.1815 8.221C93.1862 8.62233 93.2655 8.998 93.4195 9.348C93.5782 9.698 93.8162 9.98033 94.1335 10.195C94.4509 10.4097 94.8499 10.517 95.3305 10.517C95.7225 10.517 96.0492 10.454 96.3105 10.328C96.5765 10.1973 96.7865 10.048 96.9405 9.88C97.0992 9.70733 97.2112 9.55333 97.2765 9.418L97.7735 9.908C97.6009 10.174 97.4002 10.4027 97.1715 10.594C96.9475 10.7807 96.6815 10.923 96.3735 11.021C96.0702 11.119 95.7085 11.168 95.2885 11.168C94.6772 11.168 94.1545 11.0327 93.7205 10.762C93.2912 10.4867 92.9622 10.1133 92.7335 9.642C92.5095 9.17067 92.3975 8.641 92.3975 8.053C92.3975 7.493 92.5095 6.989 92.7335 6.541C92.9575 6.093 93.2795 5.73833 93.6995 5.477C94.1242 5.21567 94.6352 5.085 95.2325 5.085C95.7739 5.085 96.2429 5.204 96.6395 5.442C97.0409 5.68 97.3512 6.01133 97.5705 6.436C97.7945 6.856 97.9065 7.346 97.9065 7.906C97.9065 7.948 97.9042 8.00167 97.8995 8.067C97.8995 8.13233 97.8972 8.18367 97.8925 8.221H93.1815ZM97.1085 7.556C97.1039 7.304 97.0409 7.038 96.9195 6.758C96.8029 6.47333 96.6092 6.233 96.3385 6.037C96.0725 5.83633 95.7062 5.736 95.2395 5.736C94.7542 5.736 94.3669 5.834 94.0775 6.03C93.7929 6.22133 93.5852 6.457 93.4545 6.737C93.3239 7.017 93.2445 7.29 93.2165 7.556H97.1085ZM101.929 11.168C101.411 11.168 100.942 11.049 100.522 10.811C100.102 10.5683 99.768 10.2207 99.5207 9.768C99.2734 9.31067 99.1497 8.76467 99.1497 8.13C99.1497 7.49533 99.2734 6.95167 99.5207 6.499C99.768 6.04167 100.102 5.69167 100.522 5.449C100.942 5.20633 101.411 5.085 101.929 5.085C102.372 5.085 102.764 5.16667 103.105 5.33C103.445 5.49333 103.716 5.68233 103.917 5.897C104.117 6.107 104.227 6.289 104.246 6.443V1.368H105.058V11H104.267V9.796C104.234 9.94533 104.115 10.1273 103.91 10.342C103.709 10.5567 103.438 10.748 103.098 10.916C102.757 11.084 102.367 11.168 101.929 11.168ZM102.027 10.468C102.433 10.468 102.804 10.3723 103.14 10.181C103.476 9.98967 103.744 9.719 103.945 9.369C104.145 9.019 104.246 8.606 104.246 8.13C104.246 7.654 104.145 7.241 103.945 6.891C103.744 6.541 103.476 6.27033 103.14 6.079C102.804 5.883 102.433 5.785 102.027 5.785C101.663 5.785 101.322 5.88067 101.005 6.072C100.692 6.25867 100.438 6.527 100.242 6.877C100.046 7.227 99.9477 7.64467 99.9477 8.13C99.9477 8.61533 100.046 9.033 100.242 9.383C100.438 9.733 100.692 10.0013 101.005 10.188C101.322 10.3747 101.663 10.468 102.027 10.468Z" fill="#F83758"/>
<path d="M4.36011 9.75986L6.98296 7.05986L9.60582 4.35986" stroke="#F83758" stroke-width="0.84" stroke-linecap="round" stroke-linejoin="round"/>
<path d="M4.36011 4.35977L6.98296 7.05977L9.60582 9.75977" stroke="#F83758" stroke-width="0.84" stroke-linecap="round" stroke-linejoin="round"/>
<path d="M7 13C10.3137 13 13 10.3137 13 7C13 3.68629 10.3137 1 7 1C3.68629 1 1 3.68629 1 7C1 10.3137 3.68629 13 7 13Z" stroke="#F83758" stroke-width="0.84" stroke-linecap="round" stroke-linejoin="round"/>
</svg>
