<svg width="123" height="14" viewBox="0 0 123 14" fill="none" xmlns="http://www.w3.org/2000/svg">
<path d="M75.74 11V4.3L76.06 4.64H74.09V4H76.46V11H75.74ZM78.1733 12.46L78.6133 10.61L78.6933 11.04C78.5399 11.04 78.4099 10.99 78.3033 10.89C78.2033 10.79 78.1533 10.66 78.1533 10.5C78.1533 10.34 78.2033 10.21 78.3033 10.11C78.4099 10.01 78.5366 9.96 78.6833 9.96C78.8366 9.96 78.9599 10.0133 79.0533 10.12C79.1533 10.2267 79.2033 10.3533 79.2033 10.5C79.2033 10.5533 79.1999 10.6067 79.1933 10.66C79.1866 10.7133 79.1733 10.7733 79.1533 10.84C79.1333 10.9067 79.1066 10.9867 79.0733 11.08L78.6533 12.46H78.1733ZM82.4624 11.06C81.9624 11.06 81.4858 10.98 81.0324 10.82C80.5791 10.6533 80.2191 10.4333 79.9524 10.16L80.3024 9.59C80.5224 9.82333 80.8224 10.0167 81.2024 10.17C81.5891 10.3233 82.0058 10.4 82.4524 10.4C83.0458 10.4 83.4958 10.27 83.8024 10.01C84.1158 9.74333 84.2724 9.39667 84.2724 8.97C84.2724 8.67 84.1991 8.41333 84.0524 8.2C83.9124 7.98 83.6724 7.81 83.3324 7.69C82.9924 7.57 82.5258 7.51 81.9324 7.51H80.4424L80.8024 4H84.6324V4.64H81.0924L81.4624 4.29L81.1524 7.23L80.7824 6.87H82.0924C82.7991 6.87 83.3658 6.95667 83.7924 7.13C84.2191 7.30333 84.5258 7.54667 84.7124 7.86C84.9058 8.16667 85.0024 8.52667 85.0024 8.94C85.0024 9.33333 84.9091 9.69333 84.7224 10.02C84.5358 10.34 84.2558 10.5933 83.8824 10.78C83.5091 10.9667 83.0358 11.06 82.4624 11.06ZM85.7377 11V10.49L88.6477 7.64C88.9143 7.38 89.1143 7.15333 89.2477 6.96C89.381 6.76 89.471 6.57333 89.5177 6.4C89.5643 6.22667 89.5877 6.06333 89.5877 5.91C89.5877 5.50333 89.4477 5.18333 89.1677 4.95C88.8943 4.71667 88.4877 4.6 87.9477 4.6C87.5343 4.6 87.1677 4.66333 86.8477 4.79C86.5343 4.91667 86.2643 5.11333 86.0377 5.38L85.5277 4.94C85.801 4.62 86.151 4.37333 86.5777 4.2C87.0043 4.02667 87.481 3.94 88.0077 3.94C88.481 3.94 88.891 4.01667 89.2377 4.17C89.5843 4.31667 89.851 4.53333 90.0377 4.82C90.231 5.10667 90.3277 5.44333 90.3277 5.83C90.3277 6.05667 90.2943 6.28 90.2277 6.5C90.1677 6.72 90.0543 6.95333 89.8877 7.2C89.7277 7.44 89.491 7.71333 89.1777 8.02L86.5077 10.64L86.3077 10.36H90.6477V11H85.7377ZM91.6889 12.46L92.1289 10.61L92.2089 11.04C92.0556 11.04 91.9256 10.99 91.8189 10.89C91.7189 10.79 91.6689 10.66 91.6689 10.5C91.6689 10.34 91.7189 10.21 91.8189 10.11C91.9256 10.01 92.0522 9.96 92.1989 9.96C92.3522 9.96 92.4756 10.0133 92.5689 10.12C92.6689 10.2267 92.7189 10.3533 92.7189 10.5C92.7189 10.5533 92.7156 10.6067 92.7089 10.66C92.7022 10.7133 92.6889 10.7733 92.6689 10.84C92.6489 10.9067 92.6222 10.9867 92.5889 11.08L92.1689 12.46H91.6889ZM95.9557 11.06C95.449 11.06 94.969 10.98 94.5157 10.82C94.069 10.6533 93.709 10.4333 93.4357 10.16L93.7857 9.59C94.0124 9.82333 94.3157 10.0167 94.6957 10.17C95.0824 10.3233 95.5024 10.4 95.9557 10.4C96.5357 10.4 96.979 10.2733 97.2857 10.02C97.599 9.76667 97.7557 9.42667 97.7557 9C97.7557 8.57333 97.6024 8.23333 97.2957 7.98C96.9957 7.72667 96.519 7.6 95.8657 7.6H95.3657V7.07L97.5257 4.36L97.6257 4.64H93.7257V4H98.2257V4.51L96.0657 7.22L95.7157 6.99H95.9857C96.8257 6.99 97.4524 7.17667 97.8657 7.55C98.2857 7.92333 98.4957 8.40333 98.4957 8.99C98.4957 9.38333 98.4024 9.73667 98.2157 10.05C98.029 10.3633 97.7457 10.61 97.3657 10.79C96.9924 10.97 96.5224 11.06 95.9557 11.06ZM99.3902 9.16V8.64L103.1 4H103.9L100.22 8.64L99.8302 8.52H105.46V9.16H99.3902ZM103.34 11V9.16L103.36 8.52V6.9H104.06V11H103.34ZM106.002 9.16V8.64L109.712 4H110.512L106.832 8.64L106.442 8.52H112.072V9.16H106.002ZM109.952 11V9.16L109.972 8.52V6.9H110.672V11H109.952Z" fill="#A4A9B3"/>
<g clip-path="url(#clip0_5325_154)">
<path d="M7 10.0741L10.605 12.25L9.64833 8.14913L12.8333 5.38996L8.63917 5.03413L7 1.16663L5.36083 5.03413L1.16667 5.38996L4.35167 8.14913L3.395 12.25L7 10.0741Z" fill="#EDB310"/>
</g>
<g clip-path="url(#clip1_5325_154)">
<path d="M21 10.0741L24.605 12.25L23.6483 8.14913L26.8333 5.38996L22.6392 5.03413L21 1.16663L19.3608 5.03413L15.1667 5.38996L18.3517 8.14913L17.395 12.25L21 10.0741Z" fill="#EDB310"/>
</g>
<g clip-path="url(#clip2_5325_154)">
<path d="M35 10.0741L38.605 12.25L37.6483 8.14913L40.8333 5.38996L36.6392 5.03413L35 1.16663L33.3608 5.03413L29.1667 5.38996L32.3517 8.14913L31.395 12.25L35 10.0741Z" fill="#EDB310"/>
</g>
<g clip-path="url(#clip3_5325_154)">
<path d="M49 10.0741L52.605 12.25L51.6483 8.14913L54.8333 5.38996L50.6392 5.03413L49 1.16663L47.3608 5.03413L43.1667 5.38996L46.3517 8.14913L45.395 12.25L49 10.0741Z" fill="#EDB310"/>
</g>
<g clip-path="url(#clip4_5325_154)">
<path d="M68.8333 5.38996L64.6392 5.02829L63 1.16663L61.3608 5.03413L57.1667 5.38996L60.3517 8.14913L59.395 12.25L63 10.0741L66.605 12.25L65.6542 8.14913L68.8333 5.38996ZM63 8.98329V3.55829L63.9975 5.91496L66.5525 6.13663L64.6158 7.81663L65.1992 10.3133L63 8.98329Z" fill="#BBBBBB"/>
</g>
<defs>
<clipPath id="clip0_5325_154">
<rect width="14" height="14" fill="white"/>
</clipPath>
<clipPath id="clip1_5325_154">
<rect width="14" height="14" fill="white" transform="translate(14)"/>
</clipPath>
<clipPath id="clip2_5325_154">
<rect width="14" height="14" fill="white" transform="translate(28)"/>
</clipPath>
<clipPath id="clip3_5325_154">
<rect width="14" height="14" fill="white" transform="translate(42)"/>
</clipPath>
<clipPath id="clip4_5325_154">
<rect width="14" height="14" fill="white" transform="translate(56)"/>
</clipPath>
</defs>
</svg>
